<?xml version="1.0" standalone="no"?>
<!DOCTYPE svg PUBLIC "-//W3C//DTD SVG 20010904//EN"
 "http://www.w3.org/TR/2001/REC-SVG-20010904/DTD/svg10.dtd">
<svg version="1.0" xmlns="http://www.w3.org/2000/svg"
 width="69.000000pt" height="70.000000pt" viewBox="0 0 69.000000 70.000000"
 preserveAspectRatio="xMidYMid meet">
<metadata>
Created by potrace 1.10, written by Peter Selinger 2001-2011
</metadata>
<g transform="translate(0.000000,70.000000) scale(0.100000,-0.100000)"
fill="#000000" stroke="none">
<path d="M510 610 c0 -29 -44 -70 -75 -70 -16 0 -25 -6 -25 -15 0 -9 9 -15 25
-15 31 0 75 -41 75 -70 0 -11 7 -20 15 -20 9 0 15 9 15 24 0 27 42 66 71 66
11 0 19 7 19 15 0 9 -9 15 -23 15 -29 0 -67 39 -67 68 0 13 -6 22 -15 22 -8 0
-15 -9 -15 -20z m35 -106 c-20 -20 -20 -20 -42 -1 l-22 20 21 22 21 22 21 -21
21 -21 -20 -21z"/>
<path d="M180 534 c0 -23 -3 -26 -25 -22 -17 4 -25 1 -25 -8 0 -8 11 -14 25
-14 20 0 25 -5 25 -25 0 -14 6 -25 14 -25 9 0 12 8 8 25 -4 22 -1 25 22 25 15
0 26 6 26 14 0 9 -8 12 -25 8 -22 -4 -25 -1 -25 22 0 14 -4 26 -10 26 -5 0
-10 -12 -10 -26z"/>
<path d="M365 421 c-8 -15 3 -31 21 -31 9 0 14 7 12 17 -4 20 -24 28 -33 14z"/>
<path d="M320 306 c0 -36 -45 -84 -86 -92 -42 -8 -46 -34 -5 -34 40 0 79 -34
87 -75 8 -43 34 -48 34 -6 0 37 42 79 83 83 35 3 50 28 17 28 -49 0 -99 47
-100 93 0 17 -5 27 -15 27 -9 0 -15 -9 -15 -24z m42 -135 l-27 -28 -30 26 -30
26 29 30 30 30 28 -28 28 -28 -28 -28z"/>
<path d="M523 303 c-7 -3 -13 -13 -13 -24 0 -14 7 -19 25 -19 18 0 25 5 25 19
0 20 -17 31 -37 24z"/>
<path d="M84 265 c-4 -9 -2 -21 4 -27 15 -15 44 -1 40 19 -4 23 -36 29 -44 8z"/>
</g>
</svg>
